<svg width="211" height="39" viewBox="0 0 211 39" fill="none" xmlns="http://www.w3.org/2000/svg">
<g id="Website">
<g id="Landing-Page-September">
<g id="LOGO-New">
<path id="Fills" d="M24.986 5.37569C25.0092 5.38924 27.2961 6.71881 31.8055 9.34046L32.1759 9.5535C32.4852 9.73347 32.7359 9.98898 32.9091 10.2953C33.0816 10.6012 33.1713 10.9492 33.1684 11.2974L33.1698 19.7356C33.1699 20.1522 32.7239 20.4129 32.3664 20.2052L29.471 18.5223C29.3047 18.4256 29.2022 18.2466 29.2022 18.0527V12.4345L23.1017 8.88831C23.0606 8.86782 22.9296 8.79244 22.6383 8.62269L16.8046 5.22757L10.7241 8.75948C10.6497 8.80873 10.6497 8.80873 10.6051 8.83579L10.2366 9.05023L4.40742 12.4347V26.8477L10.5094 30.3945C10.537 30.4084 10.64 30.4678 10.9673 30.6574L12.2585 31.395L12.4731 31.5202C12.639 31.6169 12.7412 31.7958 12.7412 31.9893V35.3398C12.7412 35.7564 12.2951 36.0171 11.9377 35.8092L11.3037 35.4405L8.99807 34.119L8.62813 33.9092C8.603 33.8948 6.38818 32.6072 1.8032 29.9415L1.43423 29.7287C1.12496 29.5492 0.873606 29.2933 0.70046 28.9872C0.527569 28.6805 0.437847 28.3326 0.441229 27.9852L0.439453 19.6413V11.2839C0.439453 10.9066 0.546125 10.5415 0.741356 10.2281C0.93673 9.91006 1.21771 9.65345 1.5189 9.50613L8.2539 5.59227L8.61862 5.37758C8.70088 5.33005 8.70088 5.33005 8.99059 5.1641L15.4434 1.41807L15.8157 1.19626C16.1483 1.00356 16.522 0.913747 16.8982 0.93137C17.2703 0.949534 17.6317 1.07296 17.8997 1.26313L24.614 5.16461L24.986 5.37569ZM29.2022 24.2003V22.2084C29.2022 21.7922 29.6475 21.5315 30.0049 21.7385L32.9003 23.4153C33.067 23.5118 33.1698 23.6911 33.1698 23.8852V27.1578C33.1698 27.2996 33.1148 27.4357 33.0166 27.537L31.6247 28.967C31.249 29.4499 30.6919 29.7077 30.1706 29.4057L18.8537 22.8093L18.8522 35.3182C18.8794 35.6379 18.7497 35.9538 18.4968 36.1587C18.4909 36.1635 17.823 36.7063 16.4933 37.7873C16.3166 37.9518 16.0846 38.0454 15.8393 38.0454C15.3085 38.0454 14.8773 37.6114 14.8773 37.075L14.8791 20.4995L12.6955 19.2305L11.5646 19.8861C11.5353 19.9067 11.4828 19.9373 10.6367 20.4284C10.1621 20.7075 9.57011 20.5643 9.29818 20.0928C9.29422 20.0859 9.12394 19.7901 8.78737 19.2054L8.28113 18.3276C8.00312 17.8453 8.14694 17.247 8.61695 16.9737C8.626 16.9684 8.92257 16.7972 9.50665 16.4601L11.713 15.1831L12.1424 14.937C12.446 14.7199 12.8505 14.6972 13.1804 14.8887L13.6843 15.1839L29.2022 24.2003Z" fill="#757A90"/>
<path id="Lambda" fill-rule="evenodd" clip-rule="evenodd" d="M42.3029 29.1329C42.1374 29.1329 41.9925 29.0704 41.8681 28.9456C41.7442 28.8204 41.6816 28.6746 41.6816 28.508V12.2551C41.6816 12.072 41.7442 11.9219 41.8681 11.8053C41.9925 11.6884 42.1374 11.6301 42.3029 11.6301H45.781C45.9632 11.6301 46.112 11.6884 46.2282 11.8053C46.344 11.9219 46.4019 12.072 46.4019 12.2551V25.2075H53.8549C54.0368 25.2075 54.1903 25.2698 54.3142 25.3949C54.4386 25.52 54.5007 25.6741 54.5007 25.8575V28.508C54.5007 28.6914 54.4386 28.8415 54.3142 28.9581C54.1903 29.0747 54.0368 29.1329 53.8549 29.1329H42.3029ZM55.6186 29.1329C55.4861 29.1329 55.3657 29.0789 55.2584 28.9703C55.1504 28.8619 55.0968 28.7411 55.0968 28.6077C55.0968 28.508 55.1053 28.4329 55.1217 28.3828L60.9101 12.3552C61.0756 11.8718 61.4067 11.6301 61.9037 11.6301H65.7792C66.2758 11.6301 66.6072 11.8718 66.7728 12.3552L72.5612 28.3828C72.5779 28.4329 72.5861 28.508 72.5861 28.6077C72.5861 28.7411 72.5321 28.8619 72.4244 28.9703C72.3168 29.0789 72.1967 29.1329 72.0642 29.1329H68.8345C68.4374 29.1329 68.1557 28.9495 67.9901 28.5827L67.0957 26.1575H60.5872L59.6927 28.5827C59.5272 28.9495 59.2455 29.1329 58.848 29.1329H55.6186ZM61.6305 22.407H66.0524L63.8414 16.0307L61.6305 22.407ZM75.1199 29.1329C74.9377 29.1329 74.7846 29.0747 74.6602 28.9581C74.5363 28.8415 74.4741 28.6914 74.4741 28.508V12.2801C74.4741 12.0971 74.5363 11.9426 74.6602 11.8178C74.7846 11.6927 74.9377 11.6301 75.1199 11.6301H77.9273C78.3411 11.6301 78.6395 11.8135 78.8214 12.18L83.0944 19.8813L87.3923 12.18C87.5742 11.8135 87.8726 11.6301 88.2864 11.6301H91.0938C91.276 11.6301 91.4291 11.6927 91.5534 11.8178C91.6774 11.9426 91.7396 12.0971 91.7396 12.2801V28.508C91.7396 28.6914 91.6774 28.8415 91.5534 28.9581C91.4291 29.0747 91.276 29.1329 91.0938 29.1329H87.9386C87.7731 29.1329 87.6282 29.0704 87.5038 28.9456C87.3799 28.8204 87.3177 28.6746 87.3177 28.508V19.4062L84.6347 24.3573C84.4194 24.7406 84.1295 24.9322 83.7651 24.9322H82.4237C82.0923 24.9322 81.8024 24.7406 81.5541 24.3573L78.896 19.4062V28.508C78.896 28.6914 78.8338 28.8415 78.7098 28.9581C78.5855 29.0747 78.4324 29.1329 78.2502 29.1329H75.1199ZM95.7391 29.1329C95.5735 29.1329 95.4286 29.0704 95.3046 28.9456C95.1803 28.8204 95.1181 28.6746 95.1181 28.508V12.2801C95.1181 12.0971 95.176 11.9426 95.2918 11.8178C95.408 11.6927 95.5572 11.6301 95.7391 11.6301H103.416C105.519 11.6301 107.084 12.0635 108.111 12.9305C109.138 13.7972 109.651 15.0306 109.651 16.631C109.651 17.4311 109.44 18.123 109.018 18.7061C108.595 19.2896 108.127 19.7147 107.614 19.9814C108.293 20.2814 108.864 20.7773 109.328 21.4692C109.792 22.161 110.024 22.9404 110.024 23.8071C110.024 25.4904 109.473 26.7993 108.372 27.7328C107.27 28.666 105.693 29.1329 103.639 29.1329H95.7391ZM102.894 18.5563C103.506 18.5563 103.979 18.3897 104.31 18.0561C104.641 17.7225 104.807 17.2896 104.807 16.7561C104.807 16.2391 104.645 15.8183 104.322 15.4933C104 15.1679 103.523 15.0056 102.894 15.0056H99.7887V18.5563H102.894ZM103.117 25.7574C103.763 25.7574 104.265 25.5697 104.62 25.1947C104.976 24.82 105.155 24.3573 105.155 23.8071C105.155 23.2404 104.972 22.7695 104.608 22.3941C104.244 22.0194 103.747 21.8317 103.117 21.8317H99.7887V25.7574H103.117ZM113.303 29.1329C113.137 29.1329 112.992 29.0704 112.868 28.9456C112.744 28.8204 112.682 28.6746 112.682 28.508V12.2801C112.682 12.0971 112.74 11.9426 112.856 11.8178C112.971 11.6927 113.121 11.6301 113.303 11.6301H119.837C122.288 11.6301 124.192 12.2176 125.55 13.3931C126.908 14.568 127.621 16.2559 127.686 18.4562C127.703 18.9396 127.712 19.5814 127.712 20.3815C127.712 21.1817 127.703 21.8149 127.686 22.2818C127.521 26.849 124.945 29.1329 119.961 29.1329H113.303ZM119.837 25.3824C120.88 25.3824 121.65 25.1325 122.147 24.6323C122.644 24.1324 122.909 23.3319 122.942 22.2318C122.975 21.7484 122.991 21.1234 122.991 20.3565C122.991 19.5896 122.975 18.9728 122.942 18.5063C122.909 17.4394 122.623 16.6517 122.085 16.1433C121.546 15.6349 120.756 15.3807 119.712 15.3807H117.352V25.3824H119.837ZM129.575 29.1329C129.442 29.1329 129.322 29.0789 129.215 28.9703C129.107 28.8619 129.053 28.7411 129.053 28.6077C129.053 28.508 129.061 28.4329 129.078 28.3828L134.866 12.3552C135.032 11.8718 135.363 11.6301 135.86 11.6301H139.735C140.232 11.6301 140.563 11.8718 140.729 12.3552L146.517 28.3828C146.534 28.4329 146.542 28.508 146.542 28.6077C146.542 28.7411 146.488 28.8619 146.381 28.9703C146.273 29.0789 146.153 29.1329 146.02 29.1329H142.791C142.394 29.1329 142.112 28.9495 141.946 28.5827L141.052 26.1575H134.543L133.649 28.5827C133.483 28.9495 133.202 29.1329 132.805 29.1329H129.575ZM135.587 22.407H140.009L137.798 16.0307L135.587 22.407Z" fill="#757A90"/>
<path id="Test" fill-rule="evenodd" clip-rule="evenodd" d="M152.902 29.1331C152.72 29.1331 152.567 29.0748 152.443 28.9583C152.318 28.8417 152.257 28.6915 152.257 28.5081V15.7058H147.884C147.702 15.7058 147.549 15.6476 147.425 15.531C147.3 15.4141 147.238 15.2643 147.238 15.0809V12.2803C147.238 12.0972 147.3 11.9428 147.425 11.818C147.549 11.6929 147.702 11.6303 147.884 11.6303H161.374C161.556 11.6303 161.709 11.6929 161.833 11.818C161.957 11.9428 162.02 12.0972 162.02 12.2803V15.0809C162.02 15.2643 161.957 15.4141 161.833 15.531C161.709 15.6476 161.556 15.7058 161.374 15.7058H157.001V28.5081C157.001 28.6915 156.939 28.8417 156.815 28.9583C156.691 29.0748 156.538 29.1331 156.356 29.1331H152.902ZM164.827 29.1331C164.661 29.1331 164.516 29.0705 164.392 28.9457C164.268 28.8206 164.206 28.6747 164.206 28.5081V12.2803C164.206 12.0972 164.264 11.9428 164.38 11.818C164.496 11.6929 164.645 11.6303 164.827 11.6303H176.552C176.735 11.6303 176.888 11.6929 177.012 11.818C177.136 11.9428 177.198 12.0972 177.198 12.2803V14.7559C177.198 14.9393 177.136 15.0891 177.012 15.2056C176.888 15.3226 176.735 15.3808 176.552 15.3808H168.703V18.5565H176.006C176.188 18.5565 176.341 18.619 176.466 18.7438C176.59 18.869 176.652 19.0231 176.652 19.2065V21.4818C176.652 21.6652 176.59 21.8193 176.466 21.9445C176.341 22.0693 176.188 22.1322 176.006 22.1322H168.703V25.3825H176.751C176.933 25.3825 177.087 25.4451 177.211 25.5699C177.335 25.695 177.397 25.8491 177.397 26.0325V28.5081C177.397 28.6915 177.335 28.8417 177.211 28.9583C177.087 29.0748 176.933 29.1331 176.751 29.1331H164.827ZM186.738 29.383C185.132 29.383 183.765 29.1499 182.639 28.683C181.513 28.2164 180.66 27.5996 180.08 26.8324C179.5 26.0662 179.194 25.2324 179.161 24.3321C179.161 24.1823 179.215 24.0572 179.322 23.957C179.43 23.8573 179.558 23.8072 179.707 23.8072H183.011C183.21 23.8072 183.372 23.8405 183.496 23.9074C183.62 23.9739 183.757 24.0904 183.906 24.257C184.121 24.6571 184.456 24.9864 184.912 25.2449C185.368 25.5034 185.976 25.6325 186.738 25.6325C187.633 25.6325 188.32 25.4948 188.8 25.2202C189.28 24.9449 189.52 24.5659 189.52 24.0822C189.52 23.7325 189.396 23.4447 189.148 23.2198C188.899 22.9946 188.502 22.7943 187.955 22.6195C187.409 22.4447 186.622 22.2487 185.595 22.0321C183.592 21.632 182.092 21.0235 181.099 20.2065C180.105 19.3899 179.608 18.2229 179.608 16.7062C179.608 15.6726 179.894 14.7516 180.465 13.9432C181.036 13.1344 181.848 12.5055 182.9 12.0554C183.951 11.6053 185.173 11.3804 186.564 11.3804C188.021 11.3804 189.284 11.6346 190.353 12.1426C191.421 12.6514 192.241 13.2846 192.812 14.0429C193.383 14.8016 193.686 15.5475 193.719 16.2811C193.719 16.4309 193.669 16.5603 193.569 16.6687C193.47 16.777 193.346 16.831 193.197 16.831H189.719C189.355 16.831 189.073 16.6812 188.874 16.3809C188.775 16.0308 188.519 15.7352 188.104 15.4935C187.69 15.2518 187.177 15.1309 186.564 15.1309C185.869 15.1309 185.33 15.2561 184.949 15.506C184.568 15.7559 184.378 16.1227 184.378 16.6061C184.378 17.0895 184.627 17.4688 185.123 17.7438C185.62 18.0191 186.548 18.298 187.905 18.5815C189.462 18.8647 190.7 19.219 191.619 19.6441C192.539 20.0688 193.217 20.6195 193.657 21.2941C194.096 21.9695 194.315 22.824 194.315 23.8573C194.315 24.9907 193.992 25.9743 193.346 26.8077C192.7 27.6411 191.806 28.2786 190.663 28.7205C189.52 29.1624 188.212 29.383 186.738 29.383ZM201.171 29.1331C200.989 29.1331 200.836 29.0748 200.712 28.9583C200.587 28.8417 200.525 28.6915 200.525 28.5081V15.7058H196.153C195.971 15.7058 195.818 15.6476 195.694 15.531C195.569 15.4141 195.508 15.2643 195.508 15.0809V12.2803C195.508 12.0972 195.569 11.9428 195.694 11.818C195.818 11.6929 195.971 11.6303 196.153 11.6303H209.642C209.825 11.6303 209.978 11.6929 210.102 11.818C210.226 11.9428 210.289 12.0972 210.289 12.2803V15.0809C210.289 15.2643 210.226 15.4141 210.102 15.531C209.978 15.6476 209.825 15.7058 209.642 15.7058H205.27V28.5081C205.27 28.6915 205.208 28.8417 205.084 28.9583C204.96 29.0748 204.807 29.1331 204.625 29.1331H201.171Z" fill="#757A90"/>
</g>
</g>
</g>
</svg>
