<svg width="150" height="57" viewBox="0 0 150 57" fill="none" xmlns="http://www.w3.org/2000/svg">
<g id="Origin 1">
<path id="path3" d="M20.5575 2.66192C20.8446 2.50161 21.2692 2.62073 21.3679 2.9536C21.4743 3.22858 21.2903 3.48018 21.1395 3.69282C20.0719 5.21245 19.3635 6.97811 19.0287 8.80501C18.8258 8.89184 18.767 9.10559 18.8302 9.3071C18.93 9.34384 19.0309 9.37612 19.1329 9.40729C21.2049 9.22472 23.3069 9.26257 25.3468 9.70009C29.0585 10.4504 32.5274 12.3363 35.1936 15.0327C37.8521 17.7012 39.718 21.1591 40.4729 24.8585C41.3099 28.8641 40.8421 33.128 39.1681 36.8586C35.6182 44.4768 29.6338 50.9204 22.3113 55.0051C22.0752 55.1153 21.7348 55.1197 21.573 54.8837C21.3823 54.6366 21.461 54.2848 21.6495 54.0599C22.6373 52.6761 23.3268 51.0852 23.7016 49.4264C23.7736 49.0824 23.8723 48.734 23.8424 48.3799C23.7215 48.2218 23.522 48.2697 23.3523 48.2753C19.7981 48.6326 16.1407 47.9947 12.929 46.4183C9.48891 44.754 6.56989 42.0331 4.63976 38.7256C2.85154 35.683 1.91142 32.1394 1.97683 28.6047C1.98902 25.3606 2.87039 22.1432 4.42247 19.3033C8.0355 12.3375 13.7084 6.45932 20.5575 2.66192ZM20.3579 21.2771C18.2438 21.5621 16.2937 22.809 15.1097 24.5858C14.3081 25.8059 13.8226 27.2554 13.8325 28.7227C13.7727 30.6888 14.5531 32.6582 15.9057 34.0743C17.0875 35.3523 18.7294 36.185 20.4511 36.4077C22.2038 36.6404 24.0342 36.2285 25.5186 35.261C27.0275 34.2992 28.1771 32.7806 28.6915 31.0606C29.6571 28.0748 28.4997 24.5769 25.9809 22.7322C24.3989 21.5231 22.3246 20.9865 20.3579 21.2771Z" fill="#757A90"/>
<path id="path46" d="M95.5159 48.7149C95.772 48.7093 96.0303 48.706 96.2875 48.7038C96.5314 49.9306 96.7764 51.1563 97.0192 52.3831C97.385 51.1619 97.7365 49.935 98.089 48.7104C98.4105 48.706 98.7331 48.7038 99.0568 48.7038C99.4127 49.9295 99.7763 51.153 100.121 52.382C100.379 51.1585 100.612 49.9295 100.868 48.7049C101.122 48.7049 101.376 48.706 101.631 48.7071C101.305 50.2212 101.002 51.7397 100.657 53.2482C100.32 53.2426 99.9825 53.2415 99.6477 53.2393C99.2919 51.9835 98.9393 50.7266 98.5735 49.473C98.2209 50.731 97.8639 51.9868 97.5014 53.2426C97.1611 53.2426 96.8207 53.2426 96.4815 53.2415C96.1589 51.733 95.8462 50.2223 95.5159 48.7149ZM126.411 48.7049C126.673 48.7038 126.937 48.7038 127.201 48.7015C127.609 49.984 128.012 51.2676 128.416 52.5513C128.825 51.2699 129.235 49.9874 129.646 48.706C129.911 48.7049 130.176 48.7049 130.443 48.7038C129.749 50.8257 129.069 52.952 128.318 55.0539C128.064 55.0517 127.81 55.0495 127.559 55.0472C127.764 54.4472 127.968 53.8471 128.183 53.2504C128.103 53.2471 127.944 53.2415 127.865 53.2381C127.388 51.7241 126.879 50.2212 126.411 48.7049ZM110.165 49.7792C110.261 49.1958 110.771 48.7449 111.345 48.6659C111.985 48.5646 112.764 48.5813 113.228 49.1034C113.727 49.7191 113.549 50.564 113.578 51.2955C112.69 51.2944 111.802 51.2921 110.915 51.2966C110.919 51.7319 110.844 52.3676 111.354 52.5557C112.031 52.7472 112.737 52.5602 113.41 52.4344C113.438 52.6503 113.469 52.8663 113.5 53.0834C112.679 53.3161 111.772 53.463 110.945 53.1769C110.375 52.9721 110.099 52.3408 110.118 51.7664C110.131 51.104 110.067 50.436 110.165 49.7792ZM111.265 49.4407C110.873 49.6957 110.917 50.2178 110.914 50.6275C111.546 50.6253 112.176 50.6264 112.808 50.6275C112.793 50.2367 112.868 49.7569 112.533 49.4741C112.169 49.2203 111.648 49.2359 111.265 49.4407ZM107.288 48.7071C107.525 48.7049 107.762 48.7049 108 48.7038C108.012 48.9075 108.027 49.1112 108.043 49.3161C108.424 49.0333 108.84 48.8051 109.27 48.6036C109.308 48.8474 109.345 49.0912 109.384 49.335C108.945 49.5832 108.512 49.846 108.094 50.1287C108.089 51.1663 108.094 52.205 108.092 53.2437C107.823 53.2426 107.554 53.2404 107.287 53.2393C107.29 51.7285 107.286 50.2178 107.288 48.7071ZM103.072 48.9019C103.556 48.5969 104.162 48.5779 104.713 48.6581C105.175 48.7182 105.613 49.0155 105.782 49.463C106.006 50.0453 105.914 50.6843 105.929 51.2944C105.041 51.2966 104.153 51.2921 103.266 51.2955C103.277 51.7152 103.174 52.2963 103.633 52.5223C104.312 52.775 105.055 52.5635 105.739 52.4288C105.775 52.647 105.812 52.8663 105.849 53.0867C105.053 53.3049 104.19 53.4486 103.383 53.2125C102.846 53.06 102.496 52.5301 102.476 51.9835C102.449 51.3923 102.469 50.7989 102.465 50.2078C102.459 49.7135 102.639 49.1758 103.072 48.9019ZM103.538 49.4875C103.2 49.7636 103.276 50.2412 103.266 50.6275C103.897 50.6264 104.529 50.6275 105.161 50.6264C105.142 50.22 105.212 49.6857 104.818 49.4285C104.426 49.2259 103.905 49.2326 103.538 49.4875ZM92.1157 48.7149C92.6101 48.5824 93.1445 48.5779 93.6367 48.7238C94.1611 48.8763 94.5735 49.3461 94.6589 49.8872C94.7376 50.436 94.6999 50.9927 94.7055 51.5448C94.7077 52.0113 94.6046 52.5145 94.2598 52.8518C93.8695 53.256 93.2731 53.3506 92.7365 53.3283C92.2 53.3161 91.6135 53.1357 91.3031 52.667C90.9871 52.2106 91.0159 51.6295 91.017 51.0995C91.027 50.5496 90.9583 49.9651 91.2044 49.453C91.3751 49.0823 91.7299 48.8251 92.1157 48.7149ZM92.4427 49.3762C92.0625 49.4552 91.8286 49.8326 91.8319 50.2067C91.8275 50.8034 91.7787 51.4101 91.8685 52.0024C92.0392 52.6759 92.9339 52.7617 93.4682 52.4989C93.9383 52.264 93.905 51.664 93.905 51.2153C93.8784 50.7232 93.986 50.1933 93.7631 49.7335C93.5026 49.2882 92.8884 49.2626 92.4427 49.3762ZM140.036 47.0628C140.404 47.0628 140.775 47.0617 141.145 47.075C141.819 49.1346 142.525 51.1841 143.212 53.2404C142.934 53.2426 142.657 53.2437 142.381 53.2459C142.204 52.755 142.034 52.2618 141.87 51.7675C141.009 51.7675 140.148 51.7675 139.289 51.7675C139.121 52.2596 138.962 52.7539 138.789 53.2437C138.511 53.2426 138.233 53.2415 137.956 53.2404C138.646 51.1797 139.34 49.1201 140.036 47.0628ZM139.511 51.045C140.227 51.0439 140.943 51.0428 141.66 51.0439C141.292 49.9395 140.952 48.8262 140.586 47.7218C140.21 48.824 139.867 49.9362 139.511 51.045ZM133.595 53.2426C133.59 51.1819 133.585 49.1212 133.597 47.0605C134.805 47.0683 136.013 47.0617 137.221 47.065C137.219 47.3055 137.219 47.5459 137.221 47.7864C136.288 47.7875 135.356 47.7875 134.423 47.7864C134.422 48.4277 134.419 49.0689 134.425 49.709C135.291 49.7057 136.159 49.7079 137.026 49.7079C137.025 49.9484 137.026 50.1889 137.027 50.4305C136.159 50.4327 135.29 50.4305 134.422 50.4316C134.421 51.1173 134.422 51.8042 134.422 52.49C135.364 52.4911 136.306 52.4922 137.248 52.49C137.247 52.7416 137.246 52.9932 137.246 53.2459C136.029 53.2393 134.811 53.2437 133.595 53.2426ZM86.0027 47.0628C86.7688 47.0661 87.5348 47.0628 88.302 47.0628C88.8031 47.065 89.3774 47.1507 89.7144 47.566C90.0559 47.9946 90.0182 48.5779 90.0259 49.0945C90.0148 49.5754 90.0392 50.1165 89.7255 50.5151C89.4328 50.8969 88.9295 51.0005 88.4783 51.035C87.9217 51.0595 87.3641 51.0372 86.8076 51.045C86.8042 51.7775 86.8076 52.5101 86.8054 53.2426C86.5371 53.2415 86.2699 53.2415 86.0038 53.2415C86.0016 51.1819 86.0027 49.1223 86.0027 47.0628ZM86.7998 47.7975C86.8109 48.6269 86.8087 49.4563 86.802 50.2868C87.455 50.2668 88.1246 50.3659 88.7676 50.2256C89.2976 50.0575 89.1789 49.4196 89.1956 48.9888C89.1778 48.6158 89.2687 48.058 88.8297 47.8944C88.1745 47.6985 87.4739 47.812 86.7998 47.7975ZM122.116 46.8735C122.382 46.8323 122.651 46.7934 122.92 46.7533C122.92 47.4691 122.919 48.1861 122.92 48.903C123.51 48.6703 124.164 48.5368 124.793 48.6715C125.289 48.7806 125.624 49.2726 125.632 49.7703C125.64 50.5095 125.644 51.2487 125.63 51.9879C125.619 52.5167 125.287 53.0333 124.769 53.1858C123.909 53.453 122.988 53.3094 122.119 53.1624C122.114 51.0661 122.117 48.9698 122.116 46.8735ZM122.918 49.6623C122.921 50.6286 122.919 51.5949 122.919 52.5624C123.384 52.6025 123.864 52.6848 124.323 52.5524C124.584 52.4878 124.793 52.2551 124.823 51.9846C124.893 51.3957 124.851 50.8001 124.861 50.2089C124.86 49.9094 124.834 49.5209 124.511 49.3895C123.969 49.2214 123.418 49.4686 122.918 49.6623ZM117.51 46.878C117.78 46.8357 118.053 46.7967 118.326 46.7611C118.31 48.9208 118.324 51.0806 118.319 53.2415C118.091 53.2415 117.864 53.2415 117.639 53.2437C117.62 53.119 117.602 52.9943 117.585 52.8719C116.967 53.2704 116.171 53.482 115.46 53.2203C115.016 53.0511 114.798 52.5557 114.802 52.1037C114.795 51.3957 114.798 50.6865 114.799 49.9785C114.789 49.4953 114.998 48.962 115.467 48.7639C116.118 48.4933 116.84 48.6603 117.513 48.7416C117.516 48.1204 117.518 47.4992 117.51 46.878ZM115.606 49.974C115.595 50.6498 115.601 51.3255 115.603 52.0013C115.583 52.244 115.697 52.5156 115.953 52.5791C116.52 52.7327 117.074 52.431 117.519 52.1048C117.509 51.222 117.519 50.3403 117.513 49.4574C117.022 49.3962 116.522 49.2782 116.029 49.3662C115.745 49.414 115.593 49.7046 115.606 49.974ZM117.379 22.7565C118.992 22.712 120.611 22.7509 122.226 22.7376C122.548 22.6986 122.959 22.8834 122.943 23.2575C122.954 28.6446 122.946 34.0329 122.948 39.4201C122.977 39.6962 122.754 39.9856 122.463 39.9623C120.794 39.9712 119.123 39.9667 117.452 39.9645C117.201 39.9845 116.971 39.7864 116.939 39.5392C116.876 39.164 116.91 38.7811 116.906 38.4037C116.908 33.3928 116.906 28.383 116.907 23.3721C116.881 23.0871 117.084 22.7866 117.379 22.7565ZM86.5537 22.7454C88.098 22.7253 89.6435 22.7465 91.1878 22.7354C91.4206 22.7454 91.7033 22.7131 91.8751 22.9101C92.0414 23.0538 92.0392 23.2875 92.0459 23.4879C92.0447 28.7615 92.0447 34.0352 92.0459 39.3099C92.0835 39.6205 91.874 39.9946 91.5259 39.9645C89.8585 39.9678 88.1911 39.9689 86.5238 39.9645C86.1812 39.9946 85.9617 39.6138 86.0016 39.3054C86.0038 33.9929 86.0027 28.6803 86.0016 23.3677C85.9484 23.0382 86.2233 22.7354 86.5537 22.7454ZM80.0582 23.2285C80.8243 22.7198 81.7478 22.4838 82.6591 22.4615C82.9728 22.4314 83.2577 22.7198 83.2278 23.0348C83.2333 24.7827 83.2322 26.5305 83.2278 28.2784C83.271 28.6636 82.883 28.8974 82.5405 28.8595C81.2977 28.8662 79.9906 29.2558 79.1381 30.2066C78.2035 31.2508 77.8886 32.6948 77.8299 34.0619C77.8155 35.842 77.8387 37.6233 77.821 39.4034C77.8476 39.7296 77.5461 40.009 77.2268 39.9678C75.5938 39.9645 73.9619 39.9689 72.3288 39.9656C72.0207 40.0068 71.749 39.7251 71.7867 39.419C71.7834 34.0329 71.7812 28.6458 71.7878 23.2608C71.7712 22.9168 72.1315 22.7109 72.4386 22.7398C74.0317 22.7387 75.6237 22.732 77.2168 22.7431C77.5195 22.7253 77.8243 22.9625 77.8155 23.2842C77.8476 24.226 77.8155 25.1701 77.8277 26.113C78.3177 24.9909 79.0084 23.8976 80.0582 23.2285ZM135.006 22.8478C136.117 22.3446 137.377 22.2778 138.57 22.4604C139.798 22.6541 140.985 23.2497 141.788 24.2182C142.514 25.0755 142.924 26.1654 143.095 27.2686C143.242 28.1893 143.204 29.1256 143.208 30.0541C143.208 33.1367 143.208 36.2194 143.208 39.3021C143.251 39.635 143.006 40.0146 142.642 39.9656C141.007 39.9689 139.373 39.9656 137.739 39.9667C137.424 40.009 137.128 39.7363 137.168 39.4145C137.162 36.5178 137.17 33.6199 137.164 30.7231C137.154 29.9027 136.989 29.0154 136.394 28.4097C135.376 27.3844 133.419 27.6182 132.69 28.8773C132.306 29.4907 132.233 30.2344 132.231 30.9436C132.234 33.7669 132.231 36.5913 132.234 39.4145C132.269 39.6839 132.052 39.9734 131.771 39.9623C130.182 39.9767 128.591 39.9578 127.001 39.9712C126.781 39.96 126.523 39.999 126.361 39.8187C126.174 39.6227 126.199 39.3277 126.188 39.0772C126.197 33.8448 126.185 28.6113 126.194 23.3777C126.156 23.0448 126.431 22.7342 126.767 22.7465C128.359 22.7264 129.953 22.7431 131.545 22.7376C131.822 22.7198 132.172 22.8467 132.217 23.1584C132.256 23.8186 132.22 24.4821 132.231 25.1434C132.974 24.1882 133.889 23.3354 135.006 22.8478ZM112.478 21.022C112.677 20.884 112.905 20.796 113.129 20.7025C113.371 20.806 113.649 20.9697 113.632 21.2758C113.641 26.2433 113.633 31.213 113.636 36.1804C113.6 38.0975 113.309 40.1048 112.227 41.7313C111.267 43.1919 109.705 44.1682 108.042 44.6213C105.91 45.2158 103.66 45.2236 101.473 45.0043C99.5258 44.7895 97.609 44.2696 95.8363 43.4312C95.527 43.3244 95.3485 42.9492 95.5125 42.652C95.9881 41.6411 96.4759 40.6325 96.9704 39.6305C97.1034 39.2976 97.5291 39.2487 97.8074 39.4246C99.7187 40.4131 101.903 40.9052 104.051 40.7037C105.13 40.5946 106.242 40.1705 106.909 39.272C107.638 38.3291 107.717 37.0822 107.679 35.9344C106.75 36.9787 105.598 37.8738 104.226 38.2267C102.1 38.7644 99.7342 38.3525 97.9338 37.0855C96.4737 36.0647 95.4693 34.4638 95.0613 32.736C94.7276 31.3098 94.7099 29.808 95.0037 28.3741C95.3651 26.6096 96.3185 24.9452 97.7531 23.8453C98.6832 23.1217 99.7963 22.6374 100.957 22.4414C101.647 22.309 102.352 22.3557 103.049 22.3502C104.491 22.3479 105.934 22.3535 107.376 22.3457C107.537 22.3535 107.723 22.329 107.854 22.4515C108.216 22.7587 108.527 23.1239 108.873 23.4512C110.071 22.6363 111.289 21.8514 112.478 21.022ZM103.213 27.2274C102.53 27.4011 101.896 27.7852 101.446 28.3318C100.42 29.5698 100.468 31.5837 101.598 32.7393C102.948 34.1376 105.468 34.142 106.807 32.7248C107.993 31.4935 107.985 29.3115 106.77 28.1014C105.859 27.1807 104.44 26.9146 103.213 27.2274ZM145.45 19.8152C145.639 19.8186 145.83 19.823 146.023 19.8308C146.25 20.2182 146.492 20.5979 146.741 20.9719C146.997 20.5923 147.239 20.2015 147.486 19.8152C147.666 19.8163 147.848 19.8163 148.031 19.8174C148.029 20.6702 148.029 21.523 148.031 22.3758C147.862 22.3758 147.696 22.3758 147.532 22.3769C147.529 21.8035 147.541 21.2313 147.518 20.6591C147.239 21.0387 146.998 21.4451 146.735 21.8347C146.467 21.4339 146.209 21.0287 145.952 20.6235C145.953 21.2079 145.952 21.7924 145.952 22.3769C145.783 22.3769 145.617 22.3769 145.453 22.378C145.45 21.5241 145.456 20.6691 145.45 19.8152ZM142.847 19.8174C143.541 19.8163 144.234 19.8152 144.929 19.8174C144.924 19.9744 144.924 20.1314 144.924 20.2895C144.665 20.2895 144.406 20.2895 144.15 20.2906C144.15 20.9853 144.148 21.6788 144.154 22.3735C143.984 22.3746 143.817 22.3769 143.65 22.378C143.652 21.6822 143.652 20.9864 143.65 20.2906C143.382 20.2884 143.115 20.2884 142.849 20.2872C142.847 20.1303 142.846 19.9733 142.847 19.8174ZM55.6584 17.3393C58.0486 17.0643 60.5308 17.4105 62.7037 18.4693C64.6228 19.3866 66.2791 20.8561 67.4099 22.6641C69.4808 25.936 69.7081 30.2734 68.0518 33.7657C67.1105 35.7696 65.5662 37.4752 63.6849 38.6286C60.2426 40.7505 55.767 40.9932 52.0742 39.3912C49.9001 38.4449 48.0221 36.8117 46.817 34.7588C45.429 32.4331 44.9534 29.6032 45.3902 26.9358C45.7672 24.5856 46.9057 22.3624 48.603 20.6992C50.48 18.8099 53.0276 17.6432 55.6584 17.3393ZM56.3269 22.9012C55.0874 23.0738 53.9167 23.6961 53.0863 24.6379C51.0276 26.9369 51.0664 30.8022 53.1706 33.0599C54.2737 34.2901 55.9555 34.9447 57.5963 34.8234C59.0109 34.7443 60.3922 34.102 61.3268 33.0254C63.5019 30.6163 63.3179 26.4693 60.9122 24.2828C59.6938 23.1539 57.9588 22.6563 56.3269 22.9012ZM119.14 13.9449C120.686 13.5474 122.429 14.4058 123.035 15.8931C123.702 17.3693 123.134 19.273 121.747 20.1125C120.948 20.6346 119.929 20.7593 119.016 20.5144C118.114 20.2683 117.338 19.6171 116.916 18.7832C116.426 17.8102 116.435 16.5956 116.957 15.6371C117.401 14.7954 118.216 14.1642 119.14 13.9449ZM88.1302 13.9694C89.5004 13.5797 91.0714 14.1698 91.8363 15.3777C92.394 16.2115 92.5303 17.297 92.2443 18.2544C91.8773 19.469 90.7798 20.4331 89.5204 20.599C88.2798 20.8027 86.9583 20.2438 86.2466 19.2007C85.4861 18.1375 85.4318 16.6212 86.1125 15.5046C86.5526 14.7542 87.2909 14.1887 88.1302 13.9694Z" fill="#757A90"/>
</g>
</svg>
