<svg width="233" height="34" viewBox="0 0 233 34" fill="none" xmlns="http://www.w3.org/2000/svg">
<path d="M13.5457 26.896C11.6737 26.896 9.93369 26.572 8.32569 25.924C6.71769 25.252 5.30169 24.328 4.07769 23.152C2.87769 21.952 1.92969 20.572 1.23369 19.012C0.561688 17.428 0.225688 15.724 0.225688 13.9C0.225688 12.076 0.561688 10.384 1.23369 8.824C1.92969 7.24 2.87769 5.86 4.07769 4.684C5.30169 3.484 6.71769 2.56 8.32569 1.912C9.93369 1.24 11.6737 0.903999 13.5457 0.903999C15.4177 0.903999 17.1577 1.24 18.7657 1.912C20.3977 2.56 21.8137 3.484 23.0137 4.684C24.2377 5.86 25.1857 7.24 25.8577 8.824C26.5297 10.384 26.8657 12.076 26.8657 13.9C26.8657 15.724 26.5297 17.428 25.8577 19.012C25.1857 20.572 24.2377 21.952 23.0137 23.152C21.8137 24.328 20.3977 25.252 18.7657 25.924C17.1577 26.572 15.4177 26.896 13.5457 26.896ZM13.5457 22.108C14.6977 22.108 15.7537 21.904 16.7137 21.496C17.6737 21.064 18.5137 20.488 19.2337 19.768C19.9537 19.024 20.5177 18.148 20.9257 17.14C21.3337 16.132 21.5377 15.052 21.5377 13.9C21.5377 12.724 21.3337 11.644 20.9257 10.66C20.5177 9.652 19.9537 8.788 19.2337 8.068C18.5137 7.324 17.6737 6.748 16.7137 6.34C15.7537 5.908 14.6977 5.692 13.5457 5.692C12.4177 5.692 11.3737 5.908 10.4137 6.34C9.45369 6.748 8.61369 7.324 7.89369 8.068C7.17369 8.788 6.60969 9.652 6.20169 10.66C5.79369 11.644 5.58969 12.712 5.58969 13.864C5.58969 15.04 5.79369 16.132 6.20169 17.14C6.60969 18.148 7.17369 19.024 7.89369 19.768C8.61369 20.488 9.45369 21.064 10.4137 21.496C11.3737 21.904 12.4177 22.108 13.5457 22.108ZM37.4308 26.86C35.9908 26.86 34.7068 26.548 33.5788 25.924C32.4748 25.276 31.5988 24.388 30.9508 23.26C30.3268 22.132 30.0148 20.836 30.0148 19.372V7.744H34.9468V18.652C34.9468 19.852 35.2948 20.812 35.9908 21.532C36.7108 22.252 37.6708 22.612 38.8708 22.612C39.6868 22.612 40.4188 22.456 41.0668 22.144C41.7388 21.808 42.2908 21.34 42.7228 20.74V7.744H47.6548V26.5H42.7228V24.988C41.2828 26.236 39.5188 26.86 37.4308 26.86ZM51.4987 26.5V7.744H56.4307V9.832C57.0307 9.016 57.7507 8.392 58.5907 7.96C59.4307 7.528 60.3787 7.312 61.4347 7.312C62.3467 7.336 63.0307 7.48 63.4867 7.744V12.064C63.1267 11.896 62.7307 11.776 62.2987 11.704C61.8667 11.608 61.4227 11.56 60.9667 11.56C60.0067 11.56 59.1307 11.8 58.3387 12.28C57.5467 12.76 56.9107 13.444 56.4307 14.332V26.5H51.4987ZM82.7602 26.86C80.7202 26.86 78.7282 26.488 76.7842 25.744C74.8402 24.976 73.1122 23.896 71.6002 22.504L74.5882 18.76C76.0522 20.056 77.4562 20.992 78.8002 21.568C80.1682 22.144 81.6082 22.432 83.1202 22.432C84.1762 22.432 85.0882 22.312 85.8562 22.072C86.6242 21.808 87.2122 21.436 87.6202 20.956C88.0522 20.476 88.2682 19.912 88.2682 19.264C88.2682 18.4 87.9562 17.74 87.3322 17.284C86.7082 16.804 85.6402 16.432 84.1282 16.168L79.1242 15.304C76.9882 14.944 75.3562 14.188 74.2282 13.036C73.1242 11.884 72.5722 10.396 72.5722 8.572C72.5722 7.012 72.9682 5.656 73.7602 4.504C74.5762 3.352 75.7162 2.476 77.1802 1.876C78.6682 1.252 80.4322 0.939999 82.4722 0.939999C84.3202 0.939999 86.1562 1.252 87.9802 1.876C89.8282 2.5 91.4602 3.364 92.8762 4.468L90.0682 8.356C87.4282 6.34 84.7762 5.332 82.1122 5.332C81.1762 5.332 80.3602 5.452 79.6642 5.692C78.9682 5.932 78.4282 6.268 78.0442 6.7C77.6842 7.108 77.5042 7.6 77.5042 8.176C77.5042 8.944 77.7802 9.544 78.3322 9.976C78.8842 10.384 79.8082 10.696 81.1042 10.912L85.8562 11.704C88.3762 12.112 90.2602 12.916 91.5082 14.116C92.7562 15.292 93.3802 16.852 93.3802 18.796C93.3802 20.428 92.9482 21.856 92.0842 23.08C91.2202 24.28 89.9842 25.216 88.3762 25.888C86.7922 26.536 84.9202 26.86 82.7602 26.86ZM96.1471 33.844V7.744H101.007V9.292C102.543 8.092 104.319 7.492 106.335 7.492C108.111 7.492 109.719 7.924 111.159 8.788C112.599 9.652 113.739 10.816 114.579 12.28C115.443 13.72 115.875 15.34 115.875 17.14C115.875 18.94 115.443 20.572 114.579 22.036C113.715 23.476 112.551 24.628 111.087 25.492C109.623 26.332 107.991 26.752 106.191 26.752C105.255 26.752 104.355 26.632 103.491 26.392C102.627 26.128 101.823 25.756 101.079 25.276V33.844H96.1471ZM105.543 22.576C106.575 22.576 107.499 22.336 108.315 21.856C109.155 21.376 109.815 20.728 110.295 19.912C110.775 19.096 111.015 18.172 111.015 17.14C111.015 16.108 110.775 15.184 110.295 14.368C109.815 13.528 109.155 12.88 108.315 12.424C107.499 11.944 106.575 11.704 105.543 11.704C104.631 11.704 103.791 11.86 103.023 12.172C102.279 12.46 101.631 12.904 101.079 13.504V20.812C101.607 21.364 102.255 21.796 103.023 22.108C103.815 22.42 104.655 22.576 105.543 22.576ZM128.002 26.86C126.13 26.86 124.438 26.428 122.926 25.564C121.414 24.7 120.214 23.536 119.326 22.072C118.438 20.608 117.994 18.964 117.994 17.14C117.994 15.316 118.426 13.672 119.29 12.208C120.178 10.72 121.378 9.544 122.89 8.68C124.426 7.816 126.13 7.384 128.002 7.384C129.874 7.384 131.566 7.816 133.078 8.68C134.614 9.544 135.814 10.72 136.678 12.208C137.566 13.672 138.01 15.316 138.01 17.14C138.01 18.964 137.566 20.608 136.678 22.072C135.814 23.536 134.626 24.7 133.114 25.564C131.602 26.428 129.898 26.86 128.002 26.86ZM128.002 22.576C128.986 22.576 129.862 22.336 130.63 21.856C131.422 21.376 132.046 20.728 132.502 19.912C132.982 19.072 133.222 18.148 133.222 17.14C133.222 16.108 132.982 15.184 132.502 14.368C132.046 13.552 131.422 12.904 130.63 12.424C129.862 11.92 128.986 11.668 128.002 11.668C127.042 11.668 126.166 11.92 125.374 12.424C124.582 12.904 123.958 13.552 123.502 14.368C123.046 15.184 122.818 16.108 122.818 17.14C122.818 18.148 123.046 19.072 123.502 19.912C123.958 20.728 124.582 21.376 125.374 21.856C126.166 22.336 127.042 22.576 128.002 22.576ZM141.042 26.5V7.744H145.974V9.292C147.39 8.02 149.142 7.384 151.23 7.384C152.694 7.384 153.978 7.708 155.082 8.356C156.21 8.98 157.086 9.856 157.71 10.984C158.334 12.088 158.646 13.384 158.646 14.872V26.5H153.714V15.592C153.714 14.368 153.366 13.408 152.67 12.712C151.974 11.992 151.026 11.632 149.826 11.632C148.986 11.632 148.242 11.8 147.594 12.136C146.946 12.448 146.406 12.904 145.974 13.504V26.5H141.042ZM169.402 26.86C167.674 26.86 166.078 26.644 164.614 26.212C163.15 25.756 161.878 25.108 160.798 24.268L163.246 20.992C164.326 21.712 165.358 22.252 166.342 22.612C167.35 22.972 168.346 23.152 169.33 23.152C170.434 23.152 171.31 22.972 171.958 22.612C172.63 22.228 172.966 21.736 172.966 21.136C172.966 20.656 172.774 20.272 172.39 19.984C172.03 19.696 171.442 19.492 170.626 19.372L167.026 18.832C165.154 18.544 163.738 17.944 162.778 17.032C161.818 16.096 161.338 14.872 161.338 13.36C161.338 12.136 161.65 11.092 162.274 10.228C162.922 9.34 163.822 8.656 164.974 8.176C166.15 7.672 167.542 7.42 169.15 7.42C170.518 7.42 171.85 7.612 173.146 7.996C174.466 8.38 175.702 8.968 176.854 9.76L174.478 12.964C173.446 12.316 172.462 11.848 171.526 11.56C170.59 11.272 169.642 11.128 168.682 11.128C167.794 11.128 167.074 11.296 166.522 11.632C165.994 11.968 165.729 12.412 165.729 12.964C165.729 13.468 165.922 13.864 166.306 14.152C166.69 14.44 167.35 14.644 168.286 14.764L171.85 15.304C173.722 15.568 175.15 16.168 176.134 17.104C177.118 18.016 177.61 19.204 177.61 20.668C177.61 21.868 177.25 22.936 176.53 23.872C175.81 24.784 174.838 25.516 173.614 26.068C172.39 26.596 170.986 26.86 169.402 26.86ZM189.385 26.86C187.513 26.86 185.821 26.428 184.309 25.564C182.797 24.7 181.597 23.536 180.709 22.072C179.821 20.608 179.377 18.964 179.377 17.14C179.377 15.316 179.809 13.672 180.673 12.208C181.561 10.72 182.761 9.544 184.273 8.68C185.809 7.816 187.513 7.384 189.385 7.384C191.257 7.384 192.949 7.816 194.461 8.68C195.997 9.544 197.197 10.72 198.061 12.208C198.949 13.672 199.393 15.316 199.393 17.14C199.393 18.964 198.949 20.608 198.061 22.072C197.197 23.536 196.009 24.7 194.497 25.564C192.985 26.428 191.281 26.86 189.385 26.86ZM189.385 22.576C190.369 22.576 191.245 22.336 192.013 21.856C192.805 21.376 193.429 20.728 193.885 19.912C194.365 19.072 194.605 18.148 194.605 17.14C194.605 16.108 194.365 15.184 193.885 14.368C193.429 13.552 192.805 12.904 192.013 12.424C191.245 11.92 190.369 11.668 189.385 11.668C188.425 11.668 187.549 11.92 186.757 12.424C185.965 12.904 185.341 13.552 184.885 14.368C184.429 15.184 184.201 16.108 184.201 17.14C184.201 18.148 184.429 19.072 184.885 19.912C185.341 20.728 185.965 21.376 186.757 21.856C187.549 22.336 188.425 22.576 189.385 22.576ZM202.424 26.5V7.744H207.356V9.832C207.956 9.016 208.676 8.392 209.516 7.96C210.356 7.528 211.304 7.312 212.36 7.312C213.272 7.336 213.956 7.48 214.412 7.744V12.064C214.052 11.896 213.656 11.776 213.224 11.704C212.792 11.608 212.348 11.56 211.892 11.56C210.932 11.56 210.056 11.8 209.264 12.28C208.472 12.76 207.836 13.444 207.356 14.332V26.5H202.424ZM224.351 26.86C222.623 26.86 221.027 26.644 219.563 26.212C218.099 25.756 216.827 25.108 215.747 24.268L218.195 20.992C219.275 21.712 220.307 22.252 221.291 22.612C222.299 22.972 223.295 23.152 224.279 23.152C225.383 23.152 226.259 22.972 226.907 22.612C227.579 22.228 227.915 21.736 227.915 21.136C227.915 20.656 227.723 20.272 227.339 19.984C226.979 19.696 226.391 19.492 225.575 19.372L221.975 18.832C220.103 18.544 218.687 17.944 217.727 17.032C216.767 16.096 216.287 14.872 216.287 13.36C216.287 12.136 216.599 11.092 217.223 10.228C217.871 9.34 218.771 8.656 219.923 8.176C221.099 7.672 222.491 7.42 224.099 7.42C225.467 7.42 226.799 7.612 228.095 7.996C229.415 8.38 230.651 8.968 231.803 9.76L229.427 12.964C228.395 12.316 227.411 11.848 226.475 11.56C225.539 11.272 224.591 11.128 223.631 11.128C222.743 11.128 222.023 11.296 221.471 11.632C220.943 11.968 220.679 12.412 220.679 12.964C220.679 13.468 220.871 13.864 221.255 14.152C221.639 14.44 222.299 14.644 223.235 14.764L226.799 15.304C228.671 15.568 230.099 16.168 231.083 17.104C232.067 18.016 232.559 19.204 232.559 20.668C232.559 21.868 232.199 22.936 231.479 23.872C230.759 24.784 229.787 25.516 228.563 26.068C227.339 26.596 225.935 26.86 224.351 26.86Z" fill="#757A90"/>
</svg>
